<svg version="1.1" xmlns="http://www.w3.org/2000/svg" viewBox="0 0 772.0000000000001 357.5" width="1544.0000000000002" height="715"><!-- svg-source:excalidraw --><metadata></metadata><defs><style class="style-fonts">
      @font-face { font-family: Excalifont; src: url(https://esm.sh/@excalidraw/excalidraw@0.5.0-b5d4c42/dist/prod/fonts/Excalifont/Excalifont-Regular-a88b72a24fb54c9f94e3b5fdaa7481c9.woff2); }</style></defs><rect x="0" y="0" width="772.0000000000001" height="357.5" fill="#ffffff"></rect><g stroke-linecap="round" transform="translate(297 43.5) rotate(0 232.50000000000006 27.5)"><path d="M13.75 0 C187.14 0, 360.53 0, 451.25 0 M13.75 0 C185.69 0, 357.64 0, 451.25 0 M451.25 0 C460.42 0, 465 4.58, 465 13.75 M451.25 0 C460.42 0, 465 4.58, 465 13.75 M465 13.75 C465 23.18, 465 32.61, 465 41.25 M465 13.75 C465 21.28, 465 28.8, 465 41.25 M465 41.25 C465 50.42, 460.42 55, 451.25 55 M465 41.25 C465 50.42, 460.42 55, 451.25 55 M451.25 55 C292.14 55, 133.03 55, 13.75 55 M451.25 55 C291.08 55, 130.91 55, 13.75 55 M13.75 55 C4.58 55, 0 50.42, 0 41.25 M13.75 55 C4.58 55, 0 50.42, 0 41.25 M0 41.25 C0 34.51, 0 27.77, 0 13.75 M0 41.25 C0 32.41, 0 23.56, 0 13.75 M0 13.75 C0 4.58, 4.58 0, 13.75 0 M0 13.75 C0 4.58, 4.58 0, 13.75 0" stroke="#1e1e1e" stroke-width="1" fill="none"></path></g><g transform="translate(514.1499996185303 61) rotate(0 15.350000381469727 10)"><text x="15.350000381469727" y="14.096" font-family="Excalifont, Xiaolai, Segoe UI Emoji" font-size="16px" fill="#1e1e1e" text-anchor="middle" style="white-space: pre;" direction="ltr" dominant-baseline="alphabetic">API</text></g><g stroke-linecap="round" transform="translate(291.5 162.5) rotate(0 113.25 92.5)"><path d="M32 0 C94.73 0, 157.46 0, 194.5 0 M32 0 C85.29 0, 138.58 0, 194.5 0 M194.5 0 C215.83 0, 226.5 10.67, 226.5 32 M194.5 0 C215.83 0, 226.5 10.67, 226.5 32 M226.5 32 C226.5 79.2, 226.5 126.4, 226.5 153 M226.5 32 C226.5 78.46, 226.5 124.92, 226.5 153 M226.5 153 C226.5 174.33, 215.83 185, 194.5 185 M226.5 153 C226.5 174.33, 215.83 185, 194.5 185 M194.5 185 C137.24 185, 79.97 185, 32 185 M194.5 185 C147.37 185, 100.24 185, 32 185 M32 185 C10.67 185, 0 174.33, 0 153 M32 185 C10.67 185, 0 174.33, 0 153 M0 153 C0 115.55, 0 78.09, 0 32 M0 153 C0 107.73, 0 62.45, 0 32 M0 32 C0 10.67, 10.67 0, 32 0 M0 32 C0 10.67, 10.67 0, 32 0" stroke="#1e1e1e" stroke-width="1" fill="none"></path></g><g transform="translate(394.8999996185303 245) rotate(0 9.850000381469727 10)"><text x="9.850000381469727" y="14.096" font-family="Excalifont, Xiaolai, Segoe UI Emoji" font-size="16px" fill="#1e1e1e" text-anchor="middle" style="white-space: pre;" direction="ltr" dominant-baseline="alphabetic">S3</text></g><g stroke-linecap="round" transform="translate(532.75 162) rotate(0 113.25 92.5)"><path d="M32 0 C71.08 0, 110.16 0, 194.5 0 M32 0 C80.35 0, 128.71 0, 194.5 0 M194.5 0 C215.83 0, 226.5 10.67, 226.5 32 M194.5 0 C215.83 0, 226.5 10.67, 226.5 32 M226.5 32 C226.5 75.29, 226.5 118.58, 226.5 153 M226.5 32 C226.5 74.97, 226.5 117.94, 226.5 153 M226.5 153 C226.5 174.33, 215.83 185, 194.5 185 M226.5 153 C226.5 174.33, 215.83 185, 194.5 185 M194.5 185 C134.5 185, 74.5 185, 32 185 M194.5 185 C159.38 185, 124.27 185, 32 185 M32 185 C10.67 185, 0 174.33, 0 153 M32 185 C10.67 185, 0 174.33, 0 153 M0 153 C0 117.61, 0 82.23, 0 32 M0 153 C0 126.47, 0 99.93, 0 32 M0 32 C0 10.67, 10.67 0, 32 0 M0 32 C0 10.67, 10.67 0, 32 0" stroke="#1e1e1e" stroke-width="1" fill="none"></path></g><g transform="translate(634.5166664123535 244.5) rotate(0 11.483333587646484 10)"><text x="11.483333587646484" y="14.096" font-family="Excalifont, Xiaolai, Segoe UI Emoji" font-size="16px" fill="#1e1e1e" text-anchor="middle" style="white-space: pre;" direction="ltr" dominant-baseline="alphabetic">R2</text></g><g stroke-linecap="round" transform="translate(294 103.5) rotate(0 232.50000000000006 27.5)"><path d="M13.75 0 C157.65 0, 301.55 0, 451.25 0 M13.75 0 C168.04 0, 322.33 0, 451.25 0 M451.25 0 C460.42 0, 465 4.58, 465 13.75 M451.25 0 C460.42 0, 465 4.58, 465 13.75 M465 13.75 C465 22.66, 465 31.57, 465 41.25 M465 13.75 C465 23.2, 465 32.64, 465 41.25 M465 41.25 C465 50.42, 460.42 55, 451.25 55 M465 41.25 C465 50.42, 460.42 55, 451.25 55 M451.25 55 C284.16 55, 117.07 55, 13.75 55 M451.25 55 C291.47 55, 131.69 55, 13.75 55 M13.75 55 C4.58 55, 0 50.42, 0 41.25 M13.75 55 C4.58 55, 0 50.42, 0 41.25 M0 41.25 C0 35.45, 0 29.65, 0 13.75 M0 41.25 C0 30.32, 0 19.39, 0 13.75 M0 13.75 C0 4.58, 4.58 0, 13.75 0 M0 13.75 C0 4.58, 4.58 0, 13.75 0" stroke="#1e1e1e" stroke-width="1" fill="none"></path></g><g transform="translate(504.00000000000006 121) rotate(0 22.5 10)"><text x="22.5" y="14.096" font-family="Excalifont, Xiaolai, Segoe UI Emoji" font-size="16px" fill="#1e1e1e" text-anchor="middle" style="white-space: pre;" direction="ltr" dominant-baseline="alphabetic">Cache</text></g><g stroke-linecap="round" transform="translate(298 10) rotate(0 231.5 15)"><path d="M7.5 0 C157.04 0, 306.58 0, 455.5 0 M7.5 0 C177.25 0, 347.01 0, 455.5 0 M455.5 0 C460.5 0, 463 2.5, 463 7.5 M455.5 0 C460.5 0, 463 2.5, 463 7.5 M463 7.5 C463 12.29, 463 17.08, 463 22.5 M463 7.5 C463 11.55, 463 15.61, 463 22.5 M463 22.5 C463 27.5, 460.5 30, 455.5 30 M463 22.5 C463 27.5, 460.5 30, 455.5 30 M455.5 30 C317.41 30, 179.31 30, 7.5 30 M455.5 30 C299.27 30, 143.04 30, 7.5 30 M7.5 30 C2.5 30, 0 27.5, 0 22.5 M7.5 30 C2.5 30, 0 27.5, 0 22.5 M0 22.5 C0 18.89, 0 15.29, 0 7.5 M0 22.5 C0 18.56, 0 14.63, 0 7.5 M0 7.5 C0 2.5, 2.5 0, 7.5 0 M0 7.5 C0 2.5, 2.5 0, 7.5 0" stroke="#1e1e1e" stroke-width="1" fill="none"></path></g><g transform="translate(450.1999969482422 15) rotate(0 79.30000305175781 10)"><text x="79.30000305175781" y="14.096" font-family="Excalifont, Xiaolai, Segoe UI Emoji" font-size="16px" fill="#1e1e1e" text-anchor="middle" style="white-space: pre;" direction="ltr" dominant-baseline="alphabetic">API SDK - Stainless</text></g><g stroke-linecap="round"><g transform="translate(286.5 168.5) rotate(0 -51.75 88.5)"><path d="M0 0 C-17.25 15.25, -102.92 62, -103.5 91.5 C-104.08 121, -20.17 162.75, -3.5 177 M0 0 C-17.25 15.25, -102.92 62, -103.5 91.5 C-104.08 121, -20.17 162.75, -3.5 177" stroke="#2f9e44" stroke-width="1" fill="none"></path></g></g><mask></mask><g mask="url(#mask-rqiDuMllnTT6WcbnnI_WZ)" stroke-linecap="round"><g transform="translate(183 260) rotate(0 -86.5 0.5)"><path d="M0 0 C-28.83 0.17, -144.17 0.83, -173 1 M0 0 C-28.83 0.17, -144.17 0.83, -173 1" stroke="#2f9e44" stroke-width="1" fill="none"></path></g></g><mask id="mask-rqiDuMllnTT6WcbnnI_WZ"><rect x="0" y="0" fill="#fff" width="456" height="361"></rect><rect x="58.96666717529297" y="250.5" fill="#000" width="75.06666564941406" height="20" opacity="1"></rect></mask><g transform="translate(58.96666717529297 250.5) rotate(0 37.53333282470703 10)"><text x="37.53333282470703" y="14.096" font-family="Excalifont, Xiaolai, Segoe UI Emoji" font-size="16px" fill="#2f9e44" text-anchor="middle" style="white-space: pre;" direction="ltr" dominant-baseline="alphabetic">Database</text></g></svg>